<svg width="50" height="50" viewBox="0 0 50 50" fill="none" xmlns="http://www.w3.org/2000/svg">
          <circle cx="25" cy="25" r="25" fill="#0B3248"/>
        
          <path d="M28.49 22.63C28.31 19.84 27.18 17.12 25.06 15C22.92 17.14 21.74 19.86 21.51 22.63C22.79 23.31 23.97 24.19 25 25.26C26.03 24.2 27.21 23.32 28.49 22.63ZM25.05 18.19C25.68 19.22 26.12 20.37 26.35 21.57C25.88 21.87 25.44 22.2 25.01 22.55C24.59 22.21 24.14 21.88 23.68 21.58C23.93 20.38 24.39 19.23 25.05 18.19ZM25 28.45C24.18 27.2 23.14 26.11 21.94 25.25C21.81 25.16 21.67 25.09 21.54 24.99C21.67 25.08 21.81 25.16 21.93 25.24C19.98 23.83 17.59 23 15 23C15 28.32 18.36 32.82 23.03 34.49C23.66 34.72 24.32 34.89 25 35C25.68 34.88 26.33 34.71 26.97 34.49C31.64 32.82 35 28.32 35 23C30.82 23 27.15 25.17 25 28.45ZM26.32 32.6C25.88 32.75 25.44 32.87 24.99 32.97C24.55 32.88 24.12 32.76 23.71 32.61C20.42 31.43 18.01 28.62 17.26 25.26C18.36 25.52 19.41 25.97 20.38 26.59L20.36 26.6C20.49 26.69 20.62 26.78 20.75 26.85L20.82 26.89C21.81 27.61 22.66 28.5 23.33 29.54L25 32.1L26.67 29.55C27.36 28.5 28.22 27.6 29.2 26.89L29.27 26.84C29.36 26.79 29.45 26.73 29.54 26.67L29.53 26.65C30.51 26 31.6 25.52 32.74 25.25C31.99 28.62 29.59 31.43 26.32 32.6ZM21.99 25.28C21.97 25.27 21.95 25.25 21.94 25.24C21.94 25.24 21.95 25.24 21.95 25.25C21.96 25.26 21.97 25.27 21.99 25.28Z" fill="#F2F2F2"/>
        </svg>