<svg width="50" height="50" viewBox="0 0 50 50" fill="none" xmlns="http://www.w3.org/2000/svg">
          <circle cx="25" cy="25" r="25" fill="#0B3248"/>

          <path d="M32 20.5C32.5523 20.5 33 20.0523 33 19.5C33 18.9477 32.5523 18.5 32 18.5C31.4477 18.5 31 18.9477 31 19.5C31 20.0523 31.4477 20.5 32 20.5Z" fill="#F2F2F2"/>
          <path d="M28 20.5C28.5523 20.5 29 20.0523 29 19.5C29 18.9477 28.5523 18.5 28 18.5C27.4477 18.5 27 18.9477 27 19.5C27 20.0523 27.4477 20.5 28 20.5Z" fill="#F2F2F2"/>
          <path d="M29.99 22C28.61 22 27.49 22.84 27.49 23.88H32.49C32.49 22.84 31.37 22 29.99 22Z" fill="#F2F2F2"/>
          <path d="M14 29C14 32.31 16.69 35 20 35C23.31 35 26 32.31 26 29V22H14V29ZM16 24H24V29C24 31.21 22.21 33 20 33C17.79 33 16 31.21 16 29V24Z" fill="#F2F2F2"/>
          <path d="M24 15V20.5H26V17H34V22C34 24.21 32.21 26 30 26C29.05 26 28.19 25.65 27.5 25.1V27.45C28.26 27.8 29.11 28 30 28C33.31 28 36 25.31 36 22V15H24Z" fill="#F2F2F2"/>
          <path d="M18 27.5C18.5523 27.5 19 27.0523 19 26.5C19 25.9477 18.5523 25.5 18 25.5C17.4477 25.5 17 25.9477 17 26.5C17 27.0523 17.4477 27.5 18 27.5Z" fill="#F2F2F2"/>
          <path d="M22 27.5C22.5523 27.5 23 27.0523 23 26.5C23 25.9477 22.5523 25.5 22 25.5C21.4477 25.5 21 25.9477 21 26.5C21 27.0523 21.4477 27.5 22 27.5Z" fill="#F2F2F2"/>
          <path d="M20 30.88C21.38 30.88 22.5 30.04 22.5 29H17.5C17.5 30.04 18.62 30.88 20 30.88Z" fill="#F2F2F2"/>
        </svg>