<svg width="50" height="50" viewBox="0 0 50 50" fill="none" xmlns="http://www.w3.org/2000/svg">
          <circle cx="25" cy="25" r="25" fill="#F2F2F2"/>
          
          <path d="M23 21.0002L19.75 24.2502C20.06 24.3702 20.31 24.5202 20.52 24.6402C20.89 24.8702 21.11 25.0002 21.67 25.0002C22.23 25.0002 22.45 24.8702 22.82 24.6402C23.28 24.3702 23.9 24.0002 25.01 24.0002C26.12 24.0002 26.74 24.3702 27.19 24.6402C27.56 24.8602 27.79 25.0002 28.34 25.0002C28.89 25.0002 29.12 24.8702 29.49 24.6402C29.61 24.5702 29.75 24.4902 29.9 24.4102L23.48 18.0002C21.93 16.4502 20.5 15.9902 18 16.0002V18.5002C19.82 18.4902 20.89 18.8902 22 20.0002L23 21.0002ZM35 29.5002H34.98H35ZM18.35 28.5002C18.9 28.5002 19.13 28.6402 19.5 28.8602C19.95 29.1302 20.57 29.5002 21.68 29.5002C22.79 29.5002 23.41 29.1302 23.86 28.8602C24.23 28.6302 24.45 28.5002 25.01 28.5002C25.56 28.5002 25.79 28.6402 26.16 28.8602C26.61 29.1302 27.23 29.5002 28.34 29.5002C29.45 29.5002 30.07 29.1302 30.52 28.8602C30.89 28.6302 31.11 28.5002 31.67 28.5002C32.22 28.5002 32.45 28.6402 32.82 28.8602C33.27 29.1302 33.88 29.4902 34.98 29.5002V27.5002C34.43 27.5002 34.2 27.3602 33.83 27.1402C33.38 26.8702 32.76 26.5002 31.65 26.5002C30.54 26.5002 29.92 26.8702 29.47 27.1402C29.1 27.3702 28.87 27.5002 28.32 27.5002C27.77 27.5002 27.54 27.3602 27.17 27.1402C26.72 26.8702 26.1 26.5002 24.99 26.5002C23.88 26.5002 23.26 26.8702 22.81 27.1402C22.44 27.3702 22.22 27.5002 21.66 27.5002C21.11 27.5002 20.88 27.3602 20.51 27.1402C20.06 26.8702 19.44 26.5002 18.33 26.5002C17.22 26.5002 16.6 26.8702 16.15 27.1402C15.78 27.3702 15.56 27.5002 15 27.5002V29.5002C16.11 29.5002 16.73 29.1302 17.2 28.8602C17.57 28.6302 17.8 28.5002 18.35 28.5002ZM31.67 31.0002C30.56 31.0002 29.94 31.3702 29.49 31.6402C29.12 31.8702 28.89 32.0002 28.34 32.0002C27.79 32.0002 27.56 31.8602 27.19 31.6402C26.74 31.3702 26.12 31.0002 25.01 31.0002C23.9 31.0002 23.28 31.3702 22.82 31.6402C22.45 31.8702 22.23 32.0002 21.67 32.0002C21.11 32.0002 20.89 31.8702 20.52 31.6402C20.07 31.3702 19.45 31.0002 18.34 31.0002C17.23 31.0002 16.61 31.3702 16.15 31.6402C15.78 31.8702 15.56 32.0002 15 32.0002V34.0002C16.11 34.0002 16.73 33.6302 17.19 33.3602C17.56 33.1302 17.79 33.0002 18.34 33.0002C18.89 33.0002 19.12 33.1302 19.49 33.3602C19.94 33.6302 20.56 34.0002 21.67 34.0002C22.78 34.0002 23.4 33.6302 23.86 33.3602C24.23 33.1302 24.45 33.0002 25.01 33.0002C25.56 33.0002 25.79 33.1402 26.16 33.3602C26.61 33.6302 27.23 34.0002 28.34 34.0002C29.45 34.0002 30.06 33.6302 30.52 33.3602C30.89 33.1302 31.11 33.0002 31.67 33.0002C32.22 33.0002 32.45 33.1402 32.82 33.3602C33.27 33.6302 33.89 34.0002 35 34.0002V32.0002C34.44 32.0002 34.22 31.8702 33.85 31.6402C33.4 31.3702 32.78 31.0002 31.67 31.0002Z" fill="#1A4862"/>
          <path d="M29.5 21C30.8807 21 32 19.8807 32 18.5C32 17.1193 30.8807 16 29.5 16C28.1193 16 27 17.1193 27 18.5C27 19.8807 28.1193 21 29.5 21Z" fill="#1A4862"/>
        </svg>