<svg width="81" height="81" viewBox="0 0 81 81" fill="none" xmlns="http://www.w3.org/2000/svg">
    <path d="M12.1297 66.5164C12.0406 66.5164 11.9648 66.4897 11.9025 66.4362C11.849 66.3739 11.8223 66.2981 11.8223 66.209V57.4808C11.8223 57.3828 11.849 57.3071 11.9025 57.2536C11.9648 57.1912 12.0406 57.16 12.1297 57.16H17.6499C17.7391 57.16 17.8103 57.1912 17.8638 57.2536C17.9262 57.3071 17.9574 57.3828 17.9574 57.4808V57.9887C17.9574 58.0778 17.9306 58.1536 17.8772 58.216C17.8237 58.2694 17.748 58.2962 17.6499 58.2962H13.1054V61.2234H17.3559C17.445 61.2234 17.5163 61.2546 17.5697 61.3169C17.6321 61.3704 17.6633 61.4462 17.6633 61.5442V62.0387C17.6633 62.1278 17.6321 62.2036 17.5697 62.2659C17.5163 62.3194 17.445 62.3461 17.3559 62.3461H13.1054V65.3803H17.7569C17.8549 65.3803 17.9306 65.407 17.9841 65.4605C18.0376 65.514 18.0643 65.5897 18.0643 65.6877V66.209C18.0643 66.2981 18.0331 66.3739 17.9707 66.4362C17.9173 66.4897 17.846 66.5164 17.7569 66.5164H12.1297Z" fill="#1A4862"/>
    <path d="M22.9356 66.6501C22.196 66.6501 21.5544 66.5342 21.0108 66.3026C20.4762 66.0709 20.0663 65.7679 19.7811 65.3937C19.496 65.0105 19.3445 64.6006 19.3267 64.164C19.3267 64.0927 19.3534 64.0303 19.4069 63.9768C19.4693 63.9145 19.5405 63.8833 19.6207 63.8833H20.3024C20.4717 63.8833 20.5876 63.9724 20.6499 64.1506C20.7301 64.5249 20.9574 64.8456 21.3316 65.113C21.7148 65.3803 22.2494 65.514 22.9356 65.514C23.6752 65.514 24.2321 65.3847 24.6063 65.1263C24.9806 64.859 25.1677 64.4892 25.1677 64.0169C25.1677 63.714 25.0742 63.4689 24.887 63.2818C24.7088 63.0947 24.4415 62.9298 24.0851 62.7872C23.7286 62.6447 23.194 62.4664 22.4811 62.2526C21.7861 62.0565 21.2336 61.8471 20.8237 61.6244C20.4138 61.4016 20.1064 61.1254 19.9014 60.7957C19.6965 60.466 19.594 60.0516 19.594 59.5526C19.594 59.0714 19.7232 58.6392 19.9816 58.2561C20.249 57.8729 20.6277 57.5744 21.1178 57.3605C21.6079 57.1378 22.1915 57.0264 22.8687 57.0264C23.5638 57.0264 24.1608 57.1511 24.6598 57.4006C25.1588 57.6412 25.5375 57.9486 25.7959 58.3229C26.0544 58.6972 26.1925 59.0714 26.2103 59.4457C26.2103 59.517 26.1836 59.5793 26.1301 59.6328C26.0855 59.6863 26.0187 59.713 25.9296 59.713H25.2212C25.0341 59.713 24.9182 59.6283 24.8737 59.459C24.8202 59.0848 24.6108 58.7773 24.2455 58.5368C23.8801 58.2873 23.4212 58.1625 22.8687 58.1625C22.2628 58.1625 21.7861 58.2783 21.4385 58.51C21.091 58.7417 20.9173 59.0848 20.9173 59.5392C20.9173 59.8422 20.9975 60.0917 21.1579 60.2877C21.3272 60.4838 21.5811 60.6575 21.9197 60.809C22.2583 60.9516 22.7529 61.1164 23.4034 61.3036C24.1608 61.5085 24.7578 61.7224 25.1945 61.9452C25.6311 62.159 25.9563 62.4308 26.1702 62.7605C26.3841 63.0813 26.491 63.4912 26.491 63.9902C26.491 64.8189 26.1702 65.4694 25.5286 65.9417C24.887 66.414 24.0227 66.6501 22.9356 66.6501Z" fill="#1A4862"/>
    <path d="M30.4909 66.5164C30.4018 66.5164 30.3261 66.4897 30.2637 66.4362C30.2102 66.3739 30.1835 66.2981 30.1835 66.209V58.3496H27.6172C27.5281 58.3496 27.4523 58.3229 27.39 58.2694C27.3365 58.2071 27.3098 58.1313 27.3098 58.0422V57.4808C27.3098 57.3917 27.3365 57.316 27.39 57.2536C27.4523 57.1912 27.5281 57.16 27.6172 57.16H34.0597C34.1577 57.16 34.2335 57.1912 34.2869 57.2536C34.3493 57.3071 34.3805 57.3828 34.3805 57.4808V58.0422C34.3805 58.1313 34.3493 58.2071 34.2869 58.2694C34.2246 58.3229 34.1488 58.3496 34.0597 58.3496H31.5068V66.209C31.5068 66.2981 31.4756 66.3739 31.4132 66.4362C31.3508 66.4897 31.2751 66.5164 31.186 66.5164H30.4909Z" fill="#1A4862"/>
    <path d="M34.2587 66.5164C34.1874 66.5164 34.125 66.4897 34.0715 66.4362C34.0181 66.3828 33.9913 66.3204 33.9913 66.2491C33.9913 66.1778 33.9958 66.1288 34.0047 66.1021L37.3195 57.4541C37.3908 57.258 37.5334 57.16 37.7472 57.16H38.6561C38.87 57.16 39.0126 57.258 39.0839 57.4541L42.3853 66.1021L42.4121 66.2491C42.4121 66.3204 42.3853 66.3828 42.3319 66.4362C42.2784 66.4897 42.216 66.5164 42.1447 66.5164H41.4631C41.365 66.5164 41.2893 66.4941 41.2358 66.4496C41.1824 66.3961 41.1467 66.3427 41.1289 66.2892L40.3938 64.3912H36.0096L35.2745 66.2892C35.2567 66.3427 35.2166 66.3961 35.1542 66.4496C35.1007 66.4941 35.0294 66.5164 34.9403 66.5164H34.2587ZM40.0061 63.2417L38.2017 58.4967L36.3973 63.2417H40.0061Z" fill="#1A4862"/>
    <path d="M45.2016 66.5164C45.1125 66.5164 45.0368 66.4897 44.9744 66.4362C44.9209 66.3739 44.8942 66.2981 44.8942 66.209V58.3496H42.3279C42.2388 58.3496 42.163 58.3229 42.1007 58.2694C42.0472 58.2071 42.0205 58.1313 42.0205 58.0422V57.4808C42.0205 57.3917 42.0472 57.316 42.1007 57.2536C42.163 57.1912 42.2388 57.16 42.3279 57.16H48.7704C48.8684 57.16 48.9442 57.1912 48.9977 57.2536C49.06 57.3071 49.0912 57.3828 49.0912 57.4808V58.0422C49.0912 58.1313 49.06 58.2071 48.9977 58.2694C48.9353 58.3229 48.8595 58.3496 48.7704 58.3496H46.2175V66.209C46.2175 66.2981 46.1863 66.3739 46.1239 66.4362C46.0615 66.4897 45.9858 66.5164 45.8967 66.5164H45.2016Z" fill="#1A4862"/>
    <path d="M54.1183 66.6501C52.9688 66.6501 52.0777 66.3427 51.445 65.7278C50.8213 65.1041 50.5094 64.164 50.5094 62.9075V57.4808C50.5094 57.3828 50.5361 57.3071 50.5896 57.2536C50.652 57.1912 50.7277 57.16 50.8168 57.16H51.4985C51.5965 57.16 51.6723 57.1912 51.7257 57.2536C51.7881 57.3071 51.8193 57.3828 51.8193 57.4808V62.9343C51.8193 63.7897 52.0198 64.4313 52.4208 64.859C52.8218 65.2867 53.3876 65.5006 54.1183 65.5006C54.849 65.5006 55.4148 65.2867 55.8158 64.859C56.2168 64.4313 56.4173 63.7897 56.4173 62.9343V57.4808C56.4173 57.3828 56.444 57.3071 56.4975 57.2536C56.5598 57.1912 56.6356 57.16 56.7247 57.16H57.4197C57.5088 57.16 57.5801 57.1912 57.6336 57.2536C57.696 57.316 57.7272 57.3917 57.7272 57.4808V62.9075C57.7272 64.164 57.4108 65.1041 56.7782 65.7278C56.1544 66.3427 55.2678 66.6501 54.1183 66.6501Z" fill="#1A4862"/>
    <path d="M60.269 66.5164C60.1799 66.5164 60.1042 66.4897 60.0418 66.4362C59.9883 66.3739 59.9616 66.2981 59.9616 66.209V57.4808C59.9616 57.3828 59.9883 57.3071 60.0418 57.2536C60.1042 57.1912 60.1799 57.16 60.269 57.16H60.9374C61.0799 57.16 61.1958 57.2313 61.2849 57.3739L64.1052 62.7739L66.9522 57.3739C66.97 57.3204 67.0056 57.2714 67.0591 57.2269C67.1215 57.1823 67.1972 57.16 67.2863 57.16H67.9413C68.0393 57.16 68.115 57.1912 68.1685 57.2536C68.2309 57.3071 68.2621 57.3828 68.2621 57.4808V66.209C68.2621 66.2981 68.2309 66.3739 68.1685 66.4362C68.1061 66.4897 68.0304 66.5164 67.9413 66.5164H67.2863C67.1972 66.5164 67.1215 66.4897 67.0591 66.4362C67.0056 66.3739 66.9789 66.2981 66.9789 66.209V59.6328L64.7467 63.9902C64.6576 64.1773 64.5151 64.2709 64.319 64.2709H63.9047C63.7086 64.2709 63.566 64.1773 63.4769 63.9902L61.2314 59.6328V66.209C61.2314 66.2981 61.2002 66.3739 61.1378 66.4362C61.0844 66.4897 61.0131 66.5164 60.924 66.5164H60.269Z" fill="#1A4862"/>
    <path fillRule="evenodd" clipRule="evenodd" d="M39.5642 12.0941C39.5642 11.8512 39.7611 11.6543 40.004 11.6543C40.2469 11.6543 40.4438 11.8512 40.4438 12.0941V41.2669C40.4438 41.5098 40.2469 41.7067 40.004 41.7067C39.7611 41.7067 39.5642 41.5098 39.5642 41.2669V12.0941ZM41.0302 17.225C41.0302 16.9821 41.2271 16.7852 41.47 16.7852C41.7129 16.7852 41.9098 16.9821 41.9098 17.225V42.7328C41.9098 42.9757 41.7129 43.1726 41.47 43.1726C41.2271 43.1726 41.0302 42.9757 41.0302 42.7328V17.225ZM38.538 16.7852C38.2952 16.7852 38.0982 16.9821 38.0982 17.225V42.7328C38.0982 42.9757 38.2952 43.1726 38.538 43.1726C38.7809 43.1726 38.9778 42.9757 38.9778 42.7328V17.225C38.9778 16.9821 38.7809 16.7852 38.538 16.7852ZM36.6323 27.4868C36.6323 27.2439 36.8292 27.047 37.0721 27.047C37.315 27.047 37.5119 27.2439 37.5119 27.4868V42.7328C37.5119 42.9757 37.315 43.1726 37.0721 43.1726C36.8292 43.1726 36.6323 42.9757 36.6323 42.7328V27.4868ZM42.9359 27.047C43.1788 27.047 43.3757 27.2439 43.3757 27.4868V42.7328C43.3757 42.9757 43.1788 43.1726 42.9359 43.1726C42.6931 43.1726 42.4962 42.9757 42.4962 42.7328V27.4868C42.4962 27.2439 42.6931 27.047 42.9359 27.047ZM46.3077 38.4815C46.3077 38.2386 46.1108 38.0417 45.8679 38.0417C45.625 38.0417 45.4281 38.2386 45.4281 38.4815V45.2983C45.4281 45.5412 45.625 45.7381 45.8679 45.7381C46.1108 45.7381 46.3077 45.5412 46.3077 45.2983V38.4815ZM34.1401 38.0417C33.8972 38.0417 33.7003 38.2386 33.7003 38.4815V45.2983C33.7003 45.5412 33.8972 45.7381 34.1401 45.7381C34.383 45.7381 34.5799 45.5412 34.5799 45.2983V38.4815C34.5799 38.2386 34.383 38.0417 34.1401 38.0417ZM35.1663 28.2197C35.1663 27.9769 35.3632 27.78 35.6061 27.78C35.849 27.78 36.0459 27.9769 36.0459 28.2197V43.4658C36.0459 43.7087 35.849 43.9056 35.6061 43.9056C35.3632 43.9056 35.1663 43.7087 35.1663 43.4658V28.2197ZM44.4019 27.78C44.6448 27.78 44.8417 27.9769 44.8417 28.2197V43.4658C44.8417 43.7087 44.6448 43.9056 44.4019 43.9056C44.159 43.9056 43.9621 43.7087 43.9621 43.4658V28.2197C43.9621 27.9769 44.159 27.78 44.4019 27.78ZM47.7736 38.848C47.7736 38.6051 47.5767 38.4082 47.3339 38.4082C47.091 38.4082 46.8941 38.6051 46.8941 38.848V45.6648C46.8941 45.9077 47.091 46.1046 47.3339 46.1046C47.5767 46.1046 47.7736 45.9077 47.7736 45.6648V38.848ZM32.6742 38.4082C32.4313 38.4082 32.2344 38.6051 32.2344 38.848V45.6648C32.2344 45.9077 32.4313 46.1046 32.6742 46.1046C32.9171 46.1046 33.114 45.9077 33.114 45.6648V38.848C33.114 38.6051 32.9171 38.4082 32.6742 38.4082Z" fill="#1A4862"/>
    <path fillRule="evenodd" clipRule="evenodd" d="M58.6391 17.1513C58.401 16.9492 58.0355 17.1184 58.0355 17.4307V45.7955C58.0355 46.4153 58.757 46.7553 59.235 46.3608L62.3869 43.7592C62.5556 43.62 62.6533 43.4127 62.6533 43.1939V20.7283C62.6533 20.6207 62.606 20.5186 62.5239 20.4489L58.6391 17.1513ZM55.3601 19.2776C55.2184 19.2776 55.1035 19.3924 55.1035 19.5341V48.2671C55.1035 48.4088 55.2184 48.5237 55.3601 48.5237C55.5017 48.5237 55.6166 48.4088 55.6166 48.2671V19.5341C55.6166 19.3924 55.5017 19.2776 55.3601 19.2776ZM56.1272 18.6539C56.1272 18.5126 56.2418 18.398 56.3831 18.398C56.5245 18.398 56.6391 18.5126 56.6391 18.6539V47.6081C56.6391 47.7494 56.5245 47.864 56.3831 47.864C56.2418 47.864 56.1272 47.7494 56.1272 47.608V18.6539ZM57.3428 17.5184C57.2015 17.5184 57.0869 17.633 57.0869 17.7743V47.608C57.0869 47.7494 57.2015 47.864 57.3428 47.864C57.4842 47.864 57.5988 47.7494 57.5988 47.608V17.7743C57.5988 17.633 57.4842 17.5184 57.3428 17.5184Z" fill="#1A4862"/>
    <path fillRule="evenodd" clipRule="evenodd" d="M21.354 17.1513C21.5921 16.9492 21.9576 17.1184 21.9576 17.4307V45.8522C21.9576 46.4621 21.2561 46.8053 20.7747 46.4308L17.6228 43.9794C17.4443 43.8405 17.3398 43.627 17.3398 43.4008V20.7283C17.3398 20.6207 17.3871 20.5186 17.4692 20.4489L21.354 17.1513ZM24.633 19.2776C24.7747 19.2776 24.8896 19.3924 24.8896 19.5341V48.2671C24.8896 48.4088 24.7747 48.5237 24.633 48.5237C24.4914 48.5237 24.3765 48.4088 24.3765 48.2671V19.5341C24.3765 19.3924 24.4914 19.2776 24.633 19.2776ZM23.8659 18.6539C23.8659 18.5126 23.7513 18.398 23.61 18.398C23.4686 18.398 23.354 18.5126 23.354 18.6539V47.6081C23.354 47.7494 23.4686 47.864 23.61 47.864C23.7513 47.864 23.8659 47.7494 23.8659 47.608V18.6539ZM22.6503 17.5184C22.7916 17.5184 22.9062 17.633 22.9062 17.7743V47.608C22.9062 47.7494 22.7916 47.864 22.6503 47.864C22.5089 47.864 22.3943 47.7494 22.3943 47.608V17.7743C22.3943 17.633 22.5089 17.5184 22.6503 17.5184Z" fill="#1A4862"/>
    <path fillRule="evenodd" clipRule="evenodd" d="M66.2218 24.0321C65.3783 23.8836 64.5099 23.9699 63.7114 24.2815L63.6242 24.3156C63.4733 24.3745 63.3033 24.3 63.2447 24.1491C63.186 23.9983 63.2608 23.8283 63.4117 23.7694L63.4989 23.7353C64.3977 23.3845 65.3753 23.2875 66.3248 23.4547L66.2735 23.7434L66.3255 23.4548L69.0463 23.9408C69.2057 23.9693 69.3116 24.1216 69.2829 24.281C69.2541 24.4404 69.1017 24.5465 68.9423 24.5181L66.2222 24.0322L66.2218 24.0321ZM63.6567 28.3388C64.4914 28.1017 65.3664 28.0421 66.2251 28.1639L68.9528 28.5508C69.1131 28.5735 69.2616 28.462 69.2846 28.3017C69.3076 28.1414 69.1963 27.993 69.036 27.9702L66.3083 27.5833C65.3685 27.45 64.4109 27.5153 63.4972 27.7748L63.4383 27.7915C63.2825 27.8358 63.1918 27.9979 63.2359 28.1537C63.2799 28.3094 63.4419 28.3998 63.5978 28.3555L63.6567 28.3388ZM66.2249 29.41C65.3663 29.2882 64.4913 29.3478 63.6565 29.5849L63.5976 29.6016C63.4418 29.6459 63.2798 29.5555 63.2357 29.3997C63.1917 29.244 63.2823 29.0818 63.4382 29.0376L63.4971 29.0209C64.4107 28.7613 65.3684 28.6961 66.3082 28.8294L69.0359 29.2163C69.1962 29.239 69.3075 29.3874 69.2845 29.5477C69.2615 29.7081 69.1129 29.8196 68.9526 29.7968L66.2249 29.41ZM63.6565 30.8309C64.4913 30.5938 65.3663 30.5342 66.2249 30.656L68.9526 31.0429C69.1129 31.0657 69.2615 30.9541 69.2845 30.7938C69.3075 30.6335 69.1962 30.4851 69.0359 30.4624L66.3082 30.0755C65.3684 29.9422 64.4107 30.0074 63.4971 30.2669L63.4382 30.2837C63.2823 30.3279 63.1917 30.4901 63.2357 30.6458C63.2798 30.8016 63.4418 30.8919 63.5976 30.8477L63.6565 30.8309ZM66.2249 31.9021C65.3663 31.7803 64.4913 31.8399 63.6565 32.077L63.5976 32.0937C63.4418 32.138 63.2798 32.0476 63.2357 31.8919C63.1917 31.7361 63.2823 31.574 63.4382 31.5297L63.4971 31.513C64.4107 31.2535 65.3684 31.1883 66.3082 31.3216L69.0359 31.7084C69.1962 31.7312 69.3075 31.8796 69.2845 32.0399C69.2615 32.2002 69.1129 32.3117 68.9526 32.289L66.2249 31.9021ZM63.6565 34.5692C64.4913 34.332 65.3663 34.2725 66.2249 34.3943L68.9526 34.7811C69.1129 34.8039 69.2615 34.6923 69.2845 34.532C69.3075 34.3717 69.1962 34.2233 69.0359 34.2006L66.3082 33.8137C65.3684 33.6804 64.4107 33.7456 63.4971 34.0051L63.4382 34.0219C63.2823 34.0661 63.1917 34.2283 63.2357 34.384C63.2798 34.5398 63.4418 34.6302 63.5976 34.5859L63.6565 34.5692ZM66.2249 35.6403C65.3663 35.5185 64.4913 35.5781 63.6565 35.8152L63.5976 35.832C63.4418 35.8762 63.2798 35.7859 63.2357 35.6301C63.1917 35.4744 63.2823 35.3122 63.4382 35.2679L63.4971 35.2512C64.4107 34.9917 65.3684 34.9265 66.3082 35.0598L69.0359 35.4467C69.1962 35.4694 69.3075 35.6178 69.2845 35.7781C69.2615 35.9384 69.1129 36.0499 68.9526 36.0272L66.2249 35.6403ZM66.1352 36.7728C65.3403 36.7236 64.5425 36.8096 63.776 37.0274L63.5976 37.078C63.4418 37.1223 63.2798 37.0319 63.2357 36.8762C63.1917 36.7204 63.2823 36.5583 63.4382 36.514L63.6166 36.4634C64.447 36.2275 65.3112 36.1342 66.1724 36.1876L66.2419 36.1919L66.2589 36.1929L66.2756 36.1959L69.0466 36.6945C69.2059 36.7231 69.3117 36.8756 69.2828 37.0349C69.2538 37.1943 69.1012 37.3002 68.9419 37.2716L66.1877 36.7761L66.1352 36.7728ZM63.7114 25.6742C64.5099 25.3625 65.3783 25.2763 66.2218 25.4248L66.2222 25.4248L68.9423 25.9107C69.1017 25.9392 69.2541 25.8331 69.2829 25.6737C69.3116 25.5143 69.2057 25.362 69.0463 25.3335L66.3255 24.8475L66.2735 25.1361L66.3248 24.8474C65.3753 24.6801 64.3977 24.7772 63.4989 25.128L63.4117 25.1621C63.2608 25.221 63.186 25.391 63.2447 25.5418C63.3033 25.6926 63.4733 25.7671 63.6242 25.7082L63.7114 25.6742ZM66.2218 26.8175C65.3783 26.6689 64.5099 26.7552 63.7114 27.0669L63.6242 27.1009C63.4733 27.1598 63.3033 27.0853 63.2447 26.9345C63.186 26.7837 63.2608 26.6136 63.4117 26.5547L63.4989 26.5207C64.3977 26.1699 65.3753 26.0728 66.3248 26.24L66.2735 26.5288L66.3255 26.2402L69.0463 26.7262C69.2057 26.7547 69.3116 26.9069 69.2829 27.0663C69.2541 27.2257 69.1017 27.3319 68.9423 27.3034L66.2222 26.8175L66.2218 26.8175ZM63.6565 33.3231C64.4913 33.086 65.3663 33.0264 66.2249 33.1482L68.9526 33.5351C69.1129 33.5578 69.2615 33.4463 69.2845 33.286C69.3075 33.1256 69.1962 32.9773 69.0359 32.9545L66.3082 32.5676C65.3684 32.4343 64.4107 32.4996 63.4971 32.7591L63.4382 32.7758C63.2823 32.8201 63.1917 32.9822 63.2357 33.138C63.2798 33.2937 63.4418 33.3841 63.5976 33.3398L63.6565 33.3231ZM65.8565 39.1475C65.242 39.1265 64.6273 39.1861 64.0281 39.3248L63.5862 39.4271C63.4284 39.4637 63.2711 39.3654 63.2348 39.2077C63.1985 39.0499 63.297 38.8925 63.4548 38.8559L63.8967 38.7536C64.5458 38.6033 65.2117 38.5387 65.8774 38.5614L66.2823 38.5753L66.3018 38.5759L66.3211 38.5792L69.0461 39.0394C69.2058 39.0664 69.3131 39.2177 69.2859 39.3773C69.2587 39.537 69.1072 39.6446 68.9476 39.6176L66.2418 39.1606L65.8565 39.1475ZM64.0281 38.1521C64.6273 38.0133 65.242 37.9537 65.8565 37.9747L66.2418 37.9878L68.9476 38.4448C69.1072 38.4718 69.2587 38.3642 69.2859 38.2046C69.3131 38.0449 69.2058 37.8936 69.0461 37.8667L66.3211 37.4064L66.3018 37.4032L66.2823 37.4025L65.8774 37.3887C65.2117 37.3659 64.5458 37.4305 63.8967 37.5808L63.4548 37.6831C63.297 37.7197 63.1985 37.8772 63.2348 38.0349C63.2711 38.1927 63.4284 38.2909 63.5862 38.2544L64.0281 38.1521ZM64.6108 45.466C64.6252 45.3047 64.7677 45.1855 64.929 45.1996L66.2915 45.3194L69.0232 45.486C69.1848 45.4958 69.3076 45.6349 69.2975 45.7965C69.2874 45.9581 69.1482 46.0811 68.9866 46.0713L66.251 45.9044L66.2471 45.9042L66.2432 45.9038L64.8767 45.7837C64.7154 45.7696 64.5964 45.6273 64.6108 45.466ZM64.1617 44.8542C64.6578 44.7918 65.159 44.7824 65.6569 44.8261L66.2432 44.8777L68.9761 45.1178C69.1374 45.132 69.2799 45.0128 69.2943 44.8515C69.3087 44.6902 69.1897 44.5479 69.0284 44.5337L66.2954 44.2936L65.7091 44.242C65.1698 44.1946 64.6268 44.2048 64.0894 44.2725L63.4897 44.3479C63.329 44.3682 63.215 44.5148 63.2349 44.6754C63.2549 44.8361 63.4014 44.9499 63.5621 44.9297L64.1617 44.8542ZM65.6569 43.7999C65.159 43.7562 64.6578 43.7656 64.1617 43.828L63.5621 43.9035C63.4014 43.9237 63.2549 43.8099 63.2349 43.6493C63.215 43.4886 63.329 43.342 63.4897 43.3218L64.0894 43.2463C64.6268 43.1786 65.1698 43.1684 65.7091 43.2158L66.2954 43.2674L69.0284 43.5076C69.1897 43.5217 69.3087 43.664 69.2943 43.8253C69.2799 43.9866 69.1374 44.1058 68.9761 44.0917L66.2432 43.8515L65.6569 43.7999ZM64.1893 42.7652C64.6773 42.6779 65.1732 42.6425 65.6685 42.6594L66.2458 42.6791L68.958 43.0638C69.1183 43.0865 69.2669 42.975 69.2899 42.8147C69.3129 42.6543 69.2016 42.506 69.0413 42.4832L66.3136 42.0963L66.2981 42.0941L66.2824 42.0936L65.6895 42.0734C65.1528 42.055 64.6157 42.0935 64.0869 42.188L63.4721 42.2979C63.3127 42.3264 63.2063 42.4787 63.2346 42.6381C63.2628 42.7975 63.415 42.9036 63.5744 42.8751L64.1893 42.7652ZM65.8565 41.493C65.242 41.472 64.6273 41.5317 64.0281 41.6704L63.5862 41.7727C63.4284 41.8092 63.2711 41.711 63.2348 41.5532C63.1985 41.3955 63.297 41.238 63.4548 41.2015L63.8967 41.0992C64.5458 40.9489 65.2117 40.8843 65.8774 40.907L66.2823 40.9208L66.3018 40.9215L66.3211 40.9247L69.0461 41.385C69.2058 41.4119 69.3131 41.5632 69.2859 41.7229C69.2587 41.8825 69.1072 41.9901 68.9476 41.9631L66.2418 41.5062L65.8565 41.493ZM64.0281 40.4976C64.6273 40.3589 65.242 40.2993 65.8565 40.3202L66.2418 40.3334L68.9476 40.7904C69.1072 40.8173 69.2587 40.7098 69.2859 40.5501C69.3131 40.3904 69.2058 40.2392 69.0461 40.2122L66.3211 39.752L66.3018 39.7487L66.2823 39.748L65.8774 39.7342C65.2117 39.7115 64.5458 39.7761 63.8967 39.9264L63.4548 40.0287C63.297 40.0652 63.1985 40.2227 63.2348 40.3805C63.2711 40.5382 63.4284 40.6365 63.5862 40.5999L64.0281 40.4976ZM67.1888 46.7925C66.8576 46.7567 66.5252 46.7445 66.1942 46.7558L65.9372 46.7647C65.776 46.7702 65.6356 46.6433 65.6236 46.4812C65.6116 46.3191 65.7326 46.1832 65.8938 46.1777L66.1508 46.1688C66.5094 46.1565 66.8695 46.1698 67.2283 46.2085L67.4794 46.2356L69.0221 46.3655C69.1836 46.3791 69.3088 46.5211 69.3017 46.6828C69.2946 46.8444 69.1579 46.9644 68.9964 46.9508L67.4503 46.8206L67.4468 46.8203L67.4434 46.8199L67.1888 46.7925ZM66.9695 46.9847C66.8104 46.9548 66.6735 47.0616 66.6638 47.2232C66.6541 47.3849 66.7753 47.5401 66.9344 47.5701L67.4493 47.6668L67.9642 47.7636L68.994 47.9571C69.1531 47.987 69.29 47.8802 69.2997 47.7186C69.3094 47.557 69.1883 47.4017 69.0291 47.3718L67.9993 47.1783L67.4844 47.0815L66.9695 46.9847Z" fill="#1A4862"/>
    <path fillRule="evenodd" clipRule="evenodd" d="M13.7729 24.0321C14.6164 23.8836 15.4848 23.9699 16.2833 24.2815L16.3705 24.3156C16.5215 24.3745 16.6914 24.3 16.7501 24.1491C16.8087 23.9983 16.734 23.8283 16.583 23.7694L16.4958 23.7353C15.597 23.3845 14.6194 23.2875 13.6699 23.4547L13.7212 23.7434L13.6692 23.4548L10.9484 23.9408C10.7891 23.9693 10.6832 24.1216 10.7119 24.281C10.7406 24.4404 10.8931 24.5465 11.0524 24.5181L13.7726 24.0322L13.7729 24.0321ZM16.3382 28.3388C15.5034 28.1017 14.6285 28.0421 13.7698 28.1639L11.0421 28.5508C10.8818 28.5735 10.7332 28.462 10.7102 28.3017C10.6873 28.1414 10.7986 27.993 10.9589 27.9702L13.6866 27.5833C14.6264 27.45 15.584 27.5153 16.4976 27.7748L16.5565 27.7915C16.7124 27.8358 16.803 27.9979 16.759 28.1537C16.715 28.3094 16.5529 28.3998 16.3971 28.3555L16.3382 28.3388ZM13.7698 29.41C14.6285 29.2882 15.5034 29.3478 16.3382 29.5849L16.3971 29.6016C16.5529 29.6459 16.715 29.5555 16.759 29.3997C16.803 29.244 16.7124 29.0818 16.5565 29.0376L16.4976 29.0209C15.584 28.7613 14.6264 28.6961 13.6866 28.8294L10.9589 29.2163C10.7986 29.239 10.6873 29.3874 10.7102 29.5477C10.7332 29.7081 10.8818 29.8196 11.0421 29.7968L13.7698 29.41ZM16.3382 30.8309C15.5034 30.5938 14.6285 30.5342 13.7698 30.656L11.0421 31.0429C10.8818 31.0657 10.7332 30.9541 10.7102 30.7938C10.6873 30.6335 10.7986 30.4851 10.9589 30.4624L13.6866 30.0755C14.6264 29.9422 15.584 30.0074 16.4976 30.2669L16.5565 30.2837C16.7124 30.3279 16.803 30.4901 16.759 30.6458C16.715 30.8016 16.5529 30.8919 16.3971 30.8477L16.3382 30.8309ZM13.7698 31.9021C14.6285 31.7803 15.5034 31.8399 16.3382 32.077L16.3971 32.0937C16.5529 32.138 16.715 32.0476 16.759 31.8919C16.803 31.7361 16.7124 31.574 16.5565 31.5297L16.4976 31.513C15.584 31.2535 14.6264 31.1883 13.6866 31.3216L10.9589 31.7084C10.7986 31.7312 10.6873 31.8796 10.7102 32.0399C10.7332 32.2002 10.8818 32.3117 11.0421 32.289L13.7698 31.9021ZM16.3382 34.5692C15.5034 34.3321 14.6285 34.2725 13.7698 34.3943L11.0421 34.7811C10.8818 34.8039 10.7332 34.6923 10.7102 34.532C10.6873 34.3717 10.7986 34.2233 10.9589 34.2006L13.6866 33.8137C14.6264 33.6804 15.584 33.7456 16.4976 34.0051L16.5565 34.0219C16.7124 34.0661 16.803 34.2283 16.759 34.384C16.715 34.5398 16.5529 34.6302 16.3971 34.5859L16.3382 34.5692ZM13.7698 35.6403C14.6285 35.5185 15.5034 35.5781 16.3382 35.8152L16.3971 35.832C16.5529 35.8762 16.715 35.7859 16.759 35.6301C16.803 35.4744 16.7124 35.3122 16.5565 35.268L16.4976 35.2512C15.584 34.9917 14.6264 34.9265 13.6866 35.0598L10.9589 35.4467C10.7986 35.4694 10.6873 35.6178 10.7102 35.7781C10.7332 35.9384 10.8818 36.0499 11.0421 36.0272L13.7698 35.6403ZM13.8595 36.7728C14.6544 36.7236 15.4522 36.8096 16.2187 37.0274L16.3971 37.078C16.5529 37.1223 16.715 37.0319 16.759 36.8762C16.803 36.7204 16.7124 36.5583 16.5565 36.514L16.3782 36.4634C15.5477 36.2275 14.6835 36.1342 13.8223 36.1876L13.7529 36.1919L13.7359 36.1929L13.7191 36.1959L10.9481 36.6945C10.7888 36.7231 10.6831 36.8756 10.712 37.0349C10.7409 37.1943 10.8935 37.3002 11.0528 37.2716L13.8071 36.7761L13.8595 36.7728ZM16.2833 25.6742C15.4848 25.3625 14.6164 25.2763 13.7729 25.4248L13.7726 25.4248L11.0524 25.9107C10.8931 25.9392 10.7406 25.8331 10.7119 25.6737C10.6832 25.5143 10.7891 25.362 10.9484 25.3335L13.6692 24.8475L13.7212 25.1361L13.6699 24.8474C14.6194 24.6801 15.597 24.7772 16.4958 25.128L16.583 25.1621C16.734 25.221 16.8087 25.391 16.7501 25.5418C16.6914 25.6926 16.5215 25.7671 16.3705 25.7082L16.2833 25.6742ZM13.7729 26.8175C14.6164 26.6689 15.4848 26.7552 16.2833 27.0669L16.3705 27.1009C16.5215 27.1598 16.6914 27.0853 16.7501 26.9345C16.8087 26.7837 16.734 26.6136 16.583 26.5547L16.4958 26.5207C15.597 26.1699 14.6194 26.0728 13.6699 26.24L13.7212 26.5288L13.6692 26.2402L10.9484 26.7262C10.7891 26.7547 10.6832 26.9069 10.7119 27.0663C10.7406 27.2257 10.8931 27.3319 11.0524 27.3034L13.7726 26.8175L13.7729 26.8175ZM16.3382 33.3231C15.5034 33.086 14.6285 33.0264 13.7698 33.1482L11.0421 33.5351C10.8818 33.5578 10.7332 33.4463 10.7102 33.286C10.6873 33.1256 10.7986 32.9773 10.9589 32.9545L13.6866 32.5676C14.6264 32.4343 15.584 32.4996 16.4976 32.7591L16.5565 32.7758C16.7124 32.8201 16.803 32.9822 16.759 33.138C16.715 33.2937 16.5529 33.3841 16.3971 33.3398L16.3382 33.3231ZM14.1383 39.1475C14.7527 39.1265 15.3674 39.1861 15.9666 39.3248L16.4085 39.4271C16.5663 39.4637 16.7237 39.3654 16.76 39.2077C16.7963 39.0499 16.6977 38.8925 16.5399 38.8559L16.098 38.7536C15.4489 38.6033 14.783 38.5387 14.1173 38.5615L13.7125 38.5753L13.6929 38.5759L13.6737 38.5792L10.9486 39.0394C10.789 39.0664 10.6816 39.2177 10.7088 39.3773C10.736 39.537 10.8875 39.6446 11.0471 39.6176L13.7529 39.1606L14.1383 39.1475ZM15.9666 38.1521C15.3674 38.0133 14.7527 37.9537 14.1383 37.9747L13.7529 37.9878L11.0471 38.4448C10.8875 38.4718 10.736 38.3642 10.7088 38.2046C10.6816 38.0449 10.789 37.8936 10.9486 37.8667L13.6737 37.4064L13.6929 37.4032L13.7125 37.4025L14.1173 37.3887C14.783 37.3659 15.4489 37.4306 16.098 37.5808L16.5399 37.6831C16.6977 37.7197 16.7963 37.8772 16.76 38.0349C16.7237 38.1927 16.5663 38.2909 16.4085 38.2544L15.9666 38.1521ZM14.7008 45.5261C14.6864 45.3648 14.544 45.2455 14.3827 45.2597L13.7033 45.3194L10.9717 45.486C10.8101 45.4959 10.6873 45.6349 10.6974 45.7965C10.7075 45.9581 10.8467 46.0811 11.0083 46.0713L13.7439 45.9044L13.7478 45.9042L13.7517 45.9038L14.4349 45.8438C14.5962 45.8296 14.7153 45.6874 14.7008 45.5261ZM15.0659 44.1735C15.2272 44.1593 15.3696 44.2786 15.3841 44.4398C15.3985 44.6011 15.2794 44.7434 15.1182 44.7576L13.7517 44.8777L11.0188 45.1178C10.8575 45.132 10.715 45.0128 10.7006 44.8515C10.6862 44.6902 10.8052 44.5479 10.9665 44.5337L13.6994 44.2936L15.0659 44.1735ZM14.338 43.8C14.8359 43.7562 15.3371 43.7656 15.8331 43.828L16.4328 43.9035C16.5935 43.9237 16.74 43.8099 16.7599 43.6493C16.7799 43.4886 16.6658 43.342 16.5051 43.3218L15.9055 43.2463C15.3681 43.1786 14.8251 43.1684 14.2858 43.2159L13.6994 43.2674L10.9665 43.5076C10.8052 43.5217 10.6862 43.664 10.7006 43.8253C10.715 43.9866 10.8575 44.1058 11.0188 44.0917L13.7517 43.8515L14.338 43.8ZM15.8056 42.7652C15.3175 42.6779 14.8217 42.6425 14.3263 42.6594L13.7491 42.6791L11.0369 43.0638C10.8766 43.0865 10.728 42.975 10.705 42.8147C10.682 42.6543 10.7933 42.506 10.9536 42.4832L13.6813 42.0963L13.6968 42.0941L13.7125 42.0936L14.3054 42.0734C14.842 42.055 15.3792 42.0935 15.9079 42.188L16.5228 42.2979C16.6822 42.3264 16.7886 42.4787 16.7603 42.6381C16.732 42.7975 16.5799 42.9036 16.4204 42.8751L15.8056 42.7652ZM14.1383 41.493C14.7527 41.472 15.3674 41.5317 15.9666 41.6704L16.4085 41.7727C16.5663 41.8092 16.7237 41.711 16.76 41.5532C16.7963 41.3955 16.6977 41.238 16.5399 41.2015L16.098 41.0992C15.4489 40.9489 14.783 40.8843 14.1173 40.907L13.7125 40.9208L13.6929 40.9215L13.6737 40.9247L10.9486 41.385C10.789 41.4119 10.6816 41.5632 10.7088 41.7229C10.736 41.8825 10.8875 41.9901 11.0471 41.9632L13.7529 41.5062L14.1383 41.493ZM15.9666 40.4976C15.3674 40.3589 14.7527 40.2993 14.1383 40.3202L13.7529 40.3334L11.0471 40.7904C10.8875 40.8173 10.736 40.7098 10.7088 40.5501C10.6816 40.3904 10.789 40.2392 10.9486 40.2122L13.6737 39.752L13.6929 39.7487L13.7125 39.7481L14.1173 39.7342C14.783 39.7115 15.4489 39.7761 16.098 39.9264L16.5399 40.0287C16.6977 40.0652 16.7963 40.2227 16.76 40.3805C16.7237 40.5382 16.5663 40.6365 16.4085 40.5999L15.9666 40.4976ZM13.541 46.4593C13.5306 46.2979 13.3913 46.1791 13.2299 46.194L12.7806 46.2354L10.9735 46.3654C10.8119 46.377 10.6867 46.5175 10.6938 46.6792C10.7009 46.8409 10.8376 46.9625 10.9992 46.9509L12.8092 46.8207L12.8122 46.8205L12.8151 46.8202L13.2674 46.7785C13.4289 46.7636 13.5513 46.6207 13.541 46.4593ZM12.1686 47.1785C12.3285 47.1528 12.4673 47.2629 12.4786 47.4245C12.49 47.586 12.3696 47.7377 12.2097 47.7634L11.0041 47.9569C10.8442 47.9826 10.7054 47.8725 10.6941 47.7109C10.6828 47.5494 10.8032 47.3977 10.9631 47.372L12.1686 47.1785Z" fill="#1A4862"/>
    <path fillRule="evenodd" clipRule="evenodd" d="M51.7982 33.3039C51.0742 33.1759 50.3289 33.2494 49.6438 33.5163L49.5683 33.5458C49.4174 33.6046 49.2474 33.5299 49.1886 33.379C49.1299 33.2282 49.2045 33.0582 49.3554 32.9994L49.4309 32.97C50.2163 32.6639 51.0707 32.5797 51.9007 32.7265L51.8496 33.0153L51.9014 32.7267L54.2597 33.1497C54.419 33.1783 54.5251 33.3307 54.4965 33.4901C54.4679 33.6495 54.3155 33.7555 54.1561 33.7269L51.7986 33.304L51.7982 33.3039ZM49.592 38.2581C50.3102 38.0541 51.063 38.0028 51.8018 38.1076L54.1658 38.4429C54.3261 38.4656 54.4747 38.3541 54.4977 38.1938C54.5207 38.0335 54.4094 37.8851 54.2491 37.8623L51.8851 37.527C51.0651 37.4107 50.2297 37.4676 49.4326 37.6941L49.3815 37.7086C49.2257 37.7528 49.1351 37.915 49.1791 38.0707C49.2231 38.2265 49.3851 38.3168 49.541 38.2726L49.592 38.2581ZM51.8018 39.1875C51.063 39.0827 50.3102 39.134 49.592 39.338L49.541 39.3525C49.3851 39.3968 49.2231 39.3064 49.1791 39.1506C49.1351 38.9949 49.2257 38.8327 49.3815 38.7885L49.4326 38.774C50.2297 38.5476 51.0651 38.4907 51.8851 38.607L54.2491 38.9423C54.4094 38.965 54.5207 39.1134 54.4977 39.2737C54.4747 39.434 54.3261 39.5456 54.1658 39.5228L51.8018 39.1875ZM49.592 40.418C50.3102 40.2139 51.063 40.1627 51.8018 40.2675L54.1658 40.6028C54.3261 40.6255 54.4747 40.514 54.4977 40.3537C54.5207 40.1933 54.4094 40.045 54.2491 40.0222L51.8851 39.6869C51.0651 39.5706 50.2297 39.6275 49.4326 39.8539L49.3815 39.8684C49.2257 39.9127 49.1351 40.0748 49.1791 40.2306C49.2231 40.3863 49.3851 40.4767 49.541 40.4325L49.592 40.418ZM51.8018 41.3474C51.063 41.2426 50.3102 41.2939 49.592 41.4979L49.541 41.5124C49.3851 41.5567 49.2231 41.4663 49.1791 41.3105C49.1351 41.1548 49.2257 40.9926 49.3815 40.9484L49.4326 40.9339C50.2297 40.7075 51.0651 40.6506 51.8851 40.7669L54.2491 41.1022C54.4094 41.1249 54.5207 41.2733 54.4977 41.4336C54.4747 41.5939 54.3261 41.7054 54.1658 41.6827L51.8018 41.3474ZM49.592 43.6577C50.3102 43.4537 51.063 43.4025 51.8018 43.5072L54.1658 43.8425C54.3261 43.8653 54.4747 43.7538 54.4977 43.5934C54.5207 43.4331 54.4094 43.2847 54.2491 43.262L51.8851 42.9267C51.0651 42.8104 50.2297 42.8673 49.4326 43.0937L49.3815 43.1082C49.2257 43.1525 49.1351 43.3146 49.1791 43.4704C49.2231 43.6261 49.3851 43.7165 49.541 43.6722L49.592 43.6577ZM51.8018 44.5872C51.063 44.4824 50.3102 44.5337 49.592 44.7377L49.541 44.7522C49.3851 44.7964 49.2231 44.7061 49.1791 44.5503C49.1351 44.3946 49.2257 44.2324 49.3815 44.1881L49.4326 44.1736C50.2297 43.9472 51.0651 43.8903 51.8851 44.0066L54.2491 44.3419C54.4094 44.3647 54.5207 44.5131 54.4977 44.6734C54.4747 44.8337 54.3261 44.9452 54.1658 44.9225L51.8018 44.5872ZM51.7705 45.5717C51.0517 45.5291 50.3306 45.6078 49.6375 45.8047L49.541 45.8321C49.3851 45.8764 49.2231 45.786 49.1791 45.6302C49.1351 45.4745 49.2257 45.3123 49.3815 45.2681L49.4781 45.2407C50.2405 45.0241 51.0339 44.9385 51.8245 44.9875L51.8059 45.2801L51.8583 44.9915L54.2598 45.4236C54.4191 45.4523 54.5248 45.6047 54.4959 45.764C54.467 45.9234 54.3144 46.0294 54.1551 46.0007L51.7705 45.5717ZM49.6433 34.7406C50.3286 34.4731 51.074 34.399 51.7979 34.5265L51.7983 34.5266L54.1556 34.9476C54.315 34.9761 54.4674 34.87 54.4962 34.7106C54.5249 34.5512 54.419 34.3989 54.2596 34.3704L51.9016 33.9492L51.8496 34.2378L51.9009 33.9491C51.0709 33.8029 50.2164 33.8878 49.4308 34.1944L49.3552 34.2239C49.2043 34.2828 49.1295 34.4528 49.1881 34.6036C49.2468 34.7545 49.4167 34.829 49.5677 34.7701L49.6433 34.7406ZM51.7979 35.7335C51.074 35.606 50.3286 35.6801 49.6433 35.9476L49.5677 35.9771C49.4167 36.036 49.2468 35.9615 49.1881 35.8106C49.1295 35.6598 49.2043 35.4898 49.3552 35.4309L49.4308 35.4014C50.2164 35.0947 51.0709 35.0099 51.9009 35.1561L51.8496 35.4448L51.9016 35.1562L54.2596 35.5774C54.419 35.6059 54.5249 35.7582 54.4962 35.9176C54.4674 36.077 54.315 36.1831 54.1556 36.1546L51.7983 35.7335L51.7979 35.7335ZM49.6433 37.1545C50.3286 36.887 51.074 36.813 51.7979 36.9405L51.7983 36.9405L54.1556 37.3616C54.315 37.3901 54.4674 37.2839 54.4962 37.1245C54.5249 36.9651 54.419 36.8128 54.2596 36.7844L51.9016 36.3632L51.8496 36.6518L51.9009 36.363C51.0709 36.2169 50.2164 36.3017 49.4308 36.6084L49.3552 36.6379C49.2043 36.6968 49.1295 36.8668 49.1881 37.0176C49.2468 37.1684 49.4167 37.2429 49.5677 37.184L49.6433 37.1545ZM51.8018 42.4273C51.063 42.3225 50.3102 42.3738 49.592 42.5778L49.541 42.5923C49.3851 42.6366 49.2231 42.5462 49.1791 42.3904C49.1351 42.2347 49.2257 42.0725 49.3815 42.0283L49.4326 42.0138C50.2297 41.7874 51.0651 41.7305 51.8851 41.8468L54.2491 42.1821C54.4094 42.2048 54.5207 42.3532 54.4977 42.5135C54.4747 42.6738 54.3261 42.7854 54.1658 42.7626L51.8018 42.4273ZM49.7868 47.8089C50.386 47.6701 51.0007 47.6105 51.6152 47.6315L51.818 47.6384L54.1604 48.034C54.3201 48.061 54.4715 47.9534 54.4987 47.7937C54.526 47.6341 54.4186 47.4828 54.259 47.4558L51.8972 47.057L51.878 47.0537L51.8584 47.0531L51.6361 47.0455C50.9704 47.0227 50.3046 47.0873 49.6554 47.2376L49.3978 47.2973C49.24 47.3338 49.1415 47.4913 49.1778 47.649C49.2141 47.8068 49.3714 47.905 49.5292 47.8685L49.7868 47.8089ZM51.6152 46.6151C51.0007 46.5941 50.386 46.6537 49.7868 46.7924L49.5292 46.8521C49.3714 46.8886 49.2141 46.7904 49.1778 46.6326C49.1415 46.4749 49.24 46.3174 49.3978 46.2808L49.6554 46.2212C50.3046 46.0709 50.9704 46.0063 51.6361 46.029L51.8584 46.0366L51.878 46.0373L51.8972 46.0406L54.259 46.4394C54.4186 46.4664 54.526 46.6177 54.4987 46.7773C54.4715 46.937 54.3201 47.0445 54.1604 47.0176L51.818 46.622L51.6152 46.6151ZM49.7868 48.8253C50.386 48.6865 51.0007 48.6269 51.6152 48.6479L51.818 48.6548L54.1604 49.0504C54.3201 49.0774 54.4715 48.9698 54.4987 48.8101C54.526 48.6505 54.4186 48.4992 54.259 48.4722L51.8972 48.0734L51.878 48.0701L51.8584 48.0695L51.6361 48.0619C50.9704 48.0391 50.3046 48.1037 49.6554 48.254L49.3978 48.3137C49.24 48.3502 49.1415 48.5077 49.1778 48.6654C49.2141 48.8232 49.3714 48.9214 49.5292 48.8849L49.7868 48.8253Z" fill="#1A4862"/>
    <path fillRule="evenodd" clipRule="evenodd" d="M28.1971 33.3039C28.9211 33.1759 29.6664 33.2494 30.3515 33.5163L30.427 33.5458C30.5779 33.6046 30.7479 33.5299 30.8066 33.379C30.8654 33.2282 30.7908 33.0582 30.6399 32.9994L30.5644 32.97C29.779 32.6639 28.9246 32.5797 28.0946 32.7265L28.1457 33.0153L28.0939 32.7267L25.7356 33.1497C25.5763 33.1783 25.4702 33.3307 25.4988 33.4901C25.5274 33.6495 25.6798 33.7555 25.8392 33.7269L28.1967 33.304L28.1971 33.3039ZM30.4031 38.2581C29.6849 38.0541 28.9321 38.0028 28.1934 38.1076L25.8293 38.4429C25.669 38.4656 25.5205 38.3541 25.4975 38.1938C25.4745 38.0335 25.5858 37.8851 25.7461 37.8623L28.1101 37.527C28.93 37.4107 29.7655 37.4676 30.5626 37.6941L30.6136 37.7086C30.7694 37.7528 30.8601 37.915 30.8161 38.0707C30.772 38.2265 30.61 38.3168 30.4542 38.2726L30.4031 38.2581ZM28.1934 39.1875C28.9321 39.0827 29.6849 39.134 30.4031 39.338L30.4542 39.3525C30.61 39.3968 30.772 39.3064 30.8161 39.1506C30.8601 38.9949 30.7694 38.8327 30.6136 38.7885L30.5626 38.774C29.7655 38.5476 28.93 38.4907 28.1101 38.607L25.7461 38.9423C25.5858 38.965 25.4745 39.1134 25.4975 39.2737C25.5205 39.434 25.669 39.5456 25.8293 39.5228L28.1934 39.1875ZM30.4031 40.418C29.6849 40.2139 28.9321 40.1627 28.1934 40.2675L25.8293 40.6028C25.669 40.6255 25.5205 40.514 25.4975 40.3537C25.4745 40.1933 25.5858 40.045 25.7461 40.0222L28.1101 39.6869C28.93 39.5706 29.7655 39.6275 30.5626 39.8539L30.6136 39.8684C30.7694 39.9127 30.8601 40.0748 30.8161 40.2306C30.772 40.3863 30.61 40.4767 30.4542 40.4325L30.4031 40.418ZM28.1934 41.3474C28.9321 41.2426 29.6849 41.2939 30.4031 41.4979L30.4542 41.5124C30.61 41.5567 30.772 41.4663 30.8161 41.3105C30.8601 41.1548 30.7694 40.9926 30.6136 40.9484L30.5626 40.9339C29.7655 40.7075 28.93 40.6506 28.1101 40.7669L25.7461 41.1022C25.5858 41.1249 25.4745 41.2733 25.4975 41.4336C25.5205 41.5939 25.669 41.7054 25.8293 41.6827L28.1934 41.3474ZM30.4031 43.6577C29.6849 43.4537 28.9321 43.4025 28.1934 43.5072L25.8293 43.8425C25.669 43.8653 25.5205 43.7538 25.4975 43.5934C25.4745 43.4331 25.5858 43.2847 25.7461 43.262L28.1101 42.9267C28.93 42.8104 29.7655 42.8673 30.5626 43.0937L30.6136 43.1082C30.7694 43.1525 30.8601 43.3146 30.8161 43.4704C30.772 43.6261 30.61 43.7165 30.4542 43.6722L30.4031 43.6577ZM28.1934 44.5872C28.9321 44.4824 29.6849 44.5337 30.4031 44.7377L30.4542 44.7522C30.61 44.7964 30.772 44.7061 30.8161 44.5503C30.8601 44.3946 30.7694 44.2324 30.6136 44.1881L30.5626 44.1736C29.7655 43.9472 28.93 43.8903 28.1101 44.0066L25.7461 44.3419C25.5858 44.3647 25.4745 44.5131 25.4975 44.6734C25.5205 44.8337 25.669 44.9452 25.8293 44.9225L28.1934 44.5872ZM28.2246 45.5717C28.9434 45.5291 29.6645 45.6078 30.3576 45.8047L30.4542 45.8321C30.61 45.8764 30.772 45.786 30.8161 45.6302C30.8601 45.4745 30.7694 45.3123 30.6136 45.2681L30.5171 45.2407C29.7547 45.0241 28.9613 44.9385 28.1706 44.9875L28.1892 45.2801L28.1369 44.9915L25.7354 45.4236C25.576 45.4523 25.4703 45.6047 25.4992 45.764C25.5281 45.9234 25.6807 46.0294 25.8401 46.0007L28.2246 45.5717ZM30.352 34.7406C29.6667 34.4731 28.9213 34.399 28.1974 34.5265L28.197 34.5266L25.8397 34.9476C25.6803 34.9761 25.5278 34.87 25.4991 34.7106C25.4704 34.5512 25.5763 34.3989 25.7357 34.3704L28.0937 33.9492L28.1457 34.2378L28.0944 33.9491C28.9244 33.8029 29.7789 33.8878 30.5645 34.1944L30.6401 34.2239C30.791 34.2828 30.8658 34.4528 30.8072 34.6036C30.7485 34.7545 30.5786 34.829 30.4276 34.7701L30.352 34.7406ZM28.1974 35.7335C28.9213 35.606 29.6667 35.6801 30.352 35.9476L30.4276 35.9771C30.5786 36.036 30.7485 35.9615 30.8072 35.8106C30.8658 35.6598 30.791 35.4898 30.6401 35.4309L30.5645 35.4014C29.7789 35.0947 28.9244 35.0099 28.0944 35.1561L28.1457 35.4448L28.0937 35.1562L25.7357 35.5774C25.5763 35.6059 25.4704 35.7582 25.4991 35.9176C25.5278 36.077 25.6803 36.1831 25.8397 36.1546L28.197 35.7335L28.1974 35.7335ZM30.352 37.1545C29.6667 36.887 28.9213 36.813 28.1974 36.9405L28.197 36.9405L25.8397 37.3616C25.6803 37.3901 25.5278 37.2839 25.4991 37.1245C25.4704 36.9651 25.5763 36.8128 25.7357 36.7844L28.0937 36.3632L28.1457 36.6518L28.0944 36.363C28.9244 36.2169 29.7789 36.3017 30.5645 36.6084L30.6401 36.6379C30.791 36.6968 30.8658 36.8668 30.8072 37.0176C30.7485 37.1684 30.5786 37.2429 30.4276 37.184L30.352 37.1545ZM28.1934 42.4273C28.9321 42.3225 29.6849 42.3738 30.4031 42.5778L30.4542 42.5923C30.61 42.6366 30.772 42.5462 30.8161 42.3904C30.8601 42.2347 30.7694 42.0725 30.6136 42.0283L30.5626 42.0138C29.7655 41.7874 28.93 41.7305 28.1101 41.8468L25.7461 42.1821C25.5858 42.2048 25.4745 42.3532 25.4975 42.5135C25.5205 42.6738 25.669 42.7854 25.8293 42.7626L28.1934 42.4273ZM30.2083 47.8089C29.6091 47.6701 28.9944 47.6105 28.38 47.6315L28.1772 47.6384L25.8347 48.034C25.6751 48.061 25.5236 47.9534 25.4964 47.7937C25.4692 47.6341 25.5765 47.4828 25.7362 47.4558L28.0979 47.057L28.1172 47.0537L28.1367 47.0531L28.359 47.0455C29.0247 47.0227 29.6906 47.0873 30.3397 47.2376L30.5973 47.2973C30.7552 47.3338 30.8537 47.4913 30.8174 47.649C30.7811 47.8068 30.6237 47.905 30.4659 47.8685L30.2083 47.8089ZM28.38 46.6151C28.9944 46.5941 29.6091 46.6537 30.2083 46.7924L30.4659 46.8521C30.6237 46.8886 30.7811 46.7904 30.8174 46.6326C30.8537 46.4749 30.7552 46.3174 30.5973 46.2808L30.3397 46.2212C29.6906 46.0709 29.0247 46.0063 28.359 46.029L28.1367 46.0366L28.1172 46.0373L28.0979 46.0406L25.7362 46.4394C25.5765 46.4664 25.4692 46.6177 25.4964 46.7773C25.5236 46.937 25.6751 47.0445 25.8347 47.0176L28.1772 46.622L28.38 46.6151ZM30.2083 48.8253C29.6091 48.6865 28.9944 48.6269 28.38 48.6479L28.1772 48.6548L25.8347 49.0504C25.6751 49.0774 25.5236 48.9698 25.4964 48.8101C25.4692 48.6505 25.5765 48.4992 25.7362 48.4722L28.0979 48.0734L28.1172 48.0701L28.1367 48.0695L28.359 48.0619C29.0247 48.0391 29.6906 48.1037 30.3397 48.254L30.5973 48.3137C30.7552 48.3502 30.8537 48.5077 30.8174 48.6654C30.7811 48.8232 30.6237 48.9214 30.4659 48.8849L30.2083 48.8253Z" fill="#1A4862"/>
    <path fillRule="evenodd" clipRule="evenodd" d="M40.2076 42.92C40.0799 42.8284 39.908 42.8284 39.7803 42.92L23.3395 54.713C22.9036 55.0257 22.3807 55.1938 21.8442 55.1938H12.1893C11.5821 55.1938 11.0898 54.7016 11.0898 54.0943C11.0898 53.4871 11.5821 52.9949 12.1893 52.9949H21.8442C21.9209 52.9949 21.9956 52.9708 22.0578 52.9262L38.4987 41.1332C39.3925 40.4921 40.5955 40.4921 41.4893 41.1332L57.9301 52.9262C57.9924 52.9708 58.0671 52.9949 58.1437 52.9949H67.6029C68.2102 52.9949 68.7024 53.4871 68.7024 54.0943C68.7024 54.7016 68.2102 55.1938 67.6029 55.1938H58.1437C57.6073 55.1938 57.0843 55.0257 56.6484 54.713L40.2076 42.92L40.8421 42.0353L40.2076 42.92Z" fill="#1A4862"/>
    <path fillRule="evenodd" clipRule="evenodd" d="M64.5304 43.0094C63.5821 42.2347 62.2184 42.2381 61.2741 43.0176L52.8787 49.9476C52.4104 50.3342 52.3441 51.0272 52.7307 51.4955C53.1172 51.9638 53.8102 52.03 54.2785 51.6435L62.6739 44.7135C62.8088 44.6021 63.0036 44.6016 63.1391 44.7123L68.9353 49.448C69.4055 49.8322 70.0982 49.7625 70.4824 49.2922C70.8666 48.822 70.7968 48.1293 70.3266 47.7451L68.9809 46.6457L64.5304 43.0094Z" fill="#1A4862"/>
    <path fillRule="evenodd" clipRule="evenodd" d="M14.789 43.0078C15.737 42.2339 17.0996 42.2373 18.0436 43.016L26.4475 49.947C26.9159 50.3334 26.9825 51.0263 26.5961 51.4948C26.2098 51.9632 25.5168 52.0298 25.0484 51.6434L16.6445 44.7124C16.5097 44.6012 16.315 44.6007 16.1796 44.7112L11.7271 48.3459L10.5803 49.2962C10.1128 49.6837 9.41968 49.6187 9.03223 49.1512C8.64478 48.6836 8.70971 47.9905 9.17726 47.6031L10.3302 46.6476L14.789 43.0078Z" fill="#1A4862"/>
    <path fillRule="evenodd" clipRule="evenodd" d="M67.3085 47.1309C66.7012 47.1309 66.209 46.5044 66.209 45.7315L66.209 44.4255C66.209 43.6526 66.7012 43.0261 67.3085 43.0261C67.9157 43.0261 68.4079 43.6526 68.4079 44.4255L68.4079 45.7315C68.4079 46.5044 67.9157 47.1309 67.3085 47.1309Z" fill="#1A4862"/>
    <path fillRule="evenodd" clipRule="evenodd" d="M12.6994 46.251C13.3066 46.251 13.7988 45.7587 13.7988 45.1515L13.7988 44.1253C13.7988 43.5181 13.3066 43.0258 12.6994 43.0258C12.0921 43.0258 11.5999 43.5181 11.5999 44.1253L11.5999 45.1515C11.5999 45.7587 12.0921 46.251 12.6994 46.251Z" fill="#1A4862"/>
    <mask id="mask0" mask-type="alpha" maskUnits="userSpaceOnUse" x="5" y="0" width="71" height="70">
        <path fillRule="evenodd" clipRule="evenodd" d="M40.0039 67.801C58.1194 67.801 72.805 53.1155 72.805 35C72.805 16.8845 58.1194 2.19895 40.0039 2.19895C21.8884 2.19895 7.20286 16.8845 7.20286 35C7.20286 53.1155 21.8884 67.801 40.0039 67.801ZM40.0039 70C59.3339 70 75.0039 54.33 75.0039 35C75.0039 15.67 59.3339 0 40.0039 0C20.6739 0 5.00391 15.67 5.00391 35C5.00391 54.33 20.6739 70 40.0039 70Z" fill="black"/>
    </mask>

</svg>

  