<svg width="50" height="50" viewBox="0 0 50 50" fill="none" xmlns="http://www.w3.org/2000/svg">
          <circle cx="25" cy="25" r="25" fill="#0B3248"/>
          <path d="M77.0625 31H75.5547V25.7422H69.8203V31H68.3203V19.625H69.8203V24.5156H75.5547V19.625H77.0625V31ZM84.7188 31C84.6354 30.8333 84.5677 30.5365 84.5156 30.1094C83.8438 30.8073 83.0417 31.1562 82.1094 31.1562C81.276 31.1562 80.5911 30.9219 80.0547 30.4531C79.5234 29.9792 79.2578 29.3802 79.2578 28.6562C79.2578 27.776 79.5911 27.0938 80.2578 26.6094C80.9297 26.1198 81.8724 25.875 83.0859 25.875H84.4922V25.2109C84.4922 24.7057 84.3411 24.3047 84.0391 24.0078C83.737 23.7057 83.2917 23.5547 82.7031 23.5547C82.1875 23.5547 81.7552 23.6849 81.4062 23.9453C81.0573 24.2057 80.8828 24.5208 80.8828 24.8906H79.4297C79.4297 24.4688 79.5781 24.0625 79.875 23.6719C80.1771 23.276 80.5833 22.9635 81.0938 22.7344C81.6094 22.5052 82.1745 22.3906 82.7891 22.3906C83.763 22.3906 84.526 22.6354 85.0781 23.125C85.6302 23.6094 85.9167 24.2786 85.9375 25.1328V29.0234C85.9375 29.7995 86.0365 30.4167 86.2344 30.875V31H84.7188ZM82.3203 29.8984C82.7734 29.8984 83.2031 29.7812 83.6094 29.5469C84.0156 29.3125 84.3099 29.0078 84.4922 28.6328V26.8984H83.3594C81.5885 26.8984 80.7031 27.4167 80.7031 28.4531C80.7031 28.9062 80.8542 29.2604 81.1562 29.5156C81.4583 29.7708 81.8464 29.8984 82.3203 29.8984ZM91.9141 23.0312C92.9766 23.0312 93.8255 23.388 94.4609 24.1016C95.1016 24.8099 95.4219 25.7448 95.4219 26.9062V27.0391C95.4219 27.8359 95.2682 28.5495 94.9609 29.1797C94.6536 29.8047 94.2109 30.2917 93.6328 30.6406C93.0599 30.9844 92.3984 31.1562 91.6484 31.1562C90.513 31.1562 89.599 30.7786 88.9062 30.0234C88.2135 29.263 87.8672 28.2448 87.8672 26.9688V26.2656C87.8672 24.4896 88.1953 23.0781 88.8516 22.0312C89.513 20.9844 90.487 20.3464 91.7734 20.1172C92.5026 19.987 92.9948 19.8281 93.25 19.6406C93.5052 19.4531 93.6328 19.1953 93.6328 18.8672H94.8203C94.8203 19.5182 94.6719 20.026 94.375 20.3906C94.0833 20.7552 93.6146 21.013 92.9688 21.1641L91.8906 21.4062C91.0312 21.6094 90.3854 21.9531 89.9531 22.4375C89.526 22.9167 89.2474 23.5573 89.1172 24.3594C89.8828 23.474 90.8151 23.0312 91.9141 23.0312ZM91.6328 24.2188C90.9245 24.2188 90.362 24.4583 89.9453 24.9375C89.5286 25.4115 89.3203 26.0703 89.3203 26.9141V27.0391C89.3203 27.9453 89.5286 28.6641 89.9453 29.1953C90.3672 29.7214 90.9349 29.9844 91.6484 29.9844C92.3672 29.9844 92.9349 29.7188 93.3516 29.1875C93.7682 28.6562 93.9766 27.8802 93.9766 26.8594C93.9766 26.0625 93.7656 25.4245 93.3438 24.9453C92.9271 24.4609 92.3568 24.2188 91.6328 24.2188ZM100.555 31.1562C99.4089 31.1562 98.4766 30.7812 97.7578 30.0312C97.0391 29.276 96.6797 28.2682 96.6797 27.0078V26.7422C96.6797 25.9036 96.8385 25.1562 97.1562 24.5C97.4792 23.8385 97.9271 23.3229 98.5 22.9531C99.0781 22.5781 99.7031 22.3906 100.375 22.3906C101.474 22.3906 102.328 22.7526 102.938 23.4766C103.547 24.2005 103.852 25.237 103.852 26.5859V27.1875H98.125C98.1458 28.0208 98.388 28.6953 98.8516 29.2109C99.3203 29.7214 99.9141 29.9766 100.633 29.9766C101.143 29.9766 101.576 29.8724 101.93 29.6641C102.284 29.4557 102.594 29.1797 102.859 28.8359L103.742 29.5234C103.034 30.612 101.971 31.1562 100.555 31.1562ZM100.375 23.5781C99.7917 23.5781 99.3021 23.7917 98.9062 24.2188C98.5104 24.6406 98.2656 25.2344 98.1719 26H102.406V25.8906C102.365 25.1562 102.167 24.5885 101.812 24.1875C101.458 23.7812 100.979 23.5781 100.375 23.5781ZM112.672 26.8672C112.672 28.1536 112.378 29.1901 111.789 29.9766C111.201 30.763 110.404 31.1562 109.398 31.1562C108.372 31.1562 107.565 30.8307 106.977 30.1797V34.25H105.531V22.5469H106.852L106.922 23.4844C107.51 22.7552 108.328 22.3906 109.375 22.3906C110.391 22.3906 111.193 22.7734 111.781 23.5391C112.375 24.3047 112.672 25.3698 112.672 26.7344V26.8672ZM111.227 26.7031C111.227 25.75 111.023 24.9974 110.617 24.4453C110.211 23.8932 109.654 23.6172 108.945 23.6172C108.07 23.6172 107.414 24.0052 106.977 24.7812V28.8203C107.409 29.5911 108.07 29.9766 108.961 29.9766C109.654 29.9766 110.203 29.7031 110.609 29.1562C111.021 28.6042 111.227 27.7865 111.227 26.7031ZM118.023 31.1562C116.878 31.1562 115.945 30.7812 115.227 30.0312C114.508 29.276 114.148 28.2682 114.148 27.0078V26.7422C114.148 25.9036 114.307 25.1562 114.625 24.5C114.948 23.8385 115.396 23.3229 115.969 22.9531C116.547 22.5781 117.172 22.3906 117.844 22.3906C118.943 22.3906 119.797 22.7526 120.406 23.4766C121.016 24.2005 121.32 25.237 121.32 26.5859V27.1875H115.594C115.615 28.0208 115.857 28.6953 116.32 29.2109C116.789 29.7214 117.383 29.9766 118.102 29.9766C118.612 29.9766 119.044 29.8724 119.398 29.6641C119.753 29.4557 120.062 29.1797 120.328 28.8359L121.211 29.5234C120.503 30.612 119.44 31.1562 118.023 31.1562ZM117.844 23.5781C117.26 23.5781 116.771 23.7917 116.375 24.2188C115.979 24.6406 115.734 25.2344 115.641 26H119.875V25.8906C119.833 25.1562 119.635 24.5885 119.281 24.1875C118.927 23.7812 118.448 23.5781 117.844 23.5781ZM129.742 27.3281H128.727V31H127.281V27.3281H126.266L123.898 31H122.07L125.094 26.625L122.359 22.5469H124.109L126.289 26.0469H127.281V22.5469H128.727V26.0469H129.711L131.906 22.5469H133.656L130.914 26.6328L133.938 31H132.109L129.742 27.3281ZM142.156 31H140.711V27.3906H136.828V31H135.375V22.5469H136.828V26.2109H140.711V22.5469H142.156V31ZM146.062 25.4609H148.258C149.216 25.4714 149.974 25.7214 150.531 26.2109C151.089 26.7005 151.367 27.3646 151.367 28.2031C151.367 29.0469 151.081 29.724 150.508 30.2344C149.935 30.7448 149.164 31 148.195 31H144.617V22.5469H146.062V25.4609ZM154.383 31H152.93V22.5469H154.383V31ZM146.062 26.6406V29.8203H148.211C148.753 29.8203 149.172 29.6823 149.469 29.4062C149.766 29.125 149.914 28.7422 149.914 28.2578C149.914 27.7891 149.768 27.4062 149.477 27.1094C149.19 26.8073 148.786 26.651 148.266 26.6406H146.062ZM160.414 31.1562C159.268 31.1562 158.336 30.7812 157.617 30.0312C156.898 29.276 156.539 28.2682 156.539 27.0078V26.7422C156.539 25.9036 156.698 25.1562 157.016 24.5C157.339 23.8385 157.786 23.3229 158.359 22.9531C158.938 22.5781 159.562 22.3906 160.234 22.3906C161.333 22.3906 162.188 22.7526 162.797 23.4766C163.406 24.2005 163.711 25.237 163.711 26.5859V27.1875H157.984C158.005 28.0208 158.247 28.6953 158.711 29.2109C159.18 29.7214 159.773 29.9766 160.492 29.9766C161.003 29.9766 161.435 29.8724 161.789 29.6641C162.143 29.4557 162.453 29.1797 162.719 28.8359L163.602 29.5234C162.893 30.612 161.831 31.1562 160.414 31.1562ZM160.234 23.5781C159.651 23.5781 159.161 23.7917 158.766 24.2188C158.37 24.6406 158.125 25.2344 158.031 26H162.266V25.8906C162.224 25.1562 162.026 24.5885 161.672 24.1875C161.318 23.7812 160.839 23.5781 160.234 23.5781Z" fill="#F2F2F2"/>
          <path d="M16 28C18.483 28 20.345 25 20.345 25C20.345 25 22.207 28 24.69 28C27.172 28 29.655 25 29.655 25C29.655 25 32.138 28 34 28" stroke="#F2F2F2" stroke-width="2" stroke-linecap="round" stroke-linejoin="round"/>
          <path d="M16 33C18.483 33 20.345 30 20.345 30C20.345 30 22.207 33 24.69 33C27.172 33 29.655 30 29.655 30C29.655 30 32.138 33 34 33" stroke="#F2F2F2" stroke-width="2" stroke-linecap="round" stroke-linejoin="round"/>
          <path d="M32 23C32 22.0807 31.8189 21.1705 31.4672 20.3212C31.1154 19.4719 30.5998 18.7003 29.9497 18.0503C29.2997 17.4002 28.5281 16.8846 27.6788 16.5328C26.8295 16.1811 25.9193 16 25 16C24.0807 16 23.1705 16.1811 22.3212 16.5328C21.4719 16.8846 20.7003 17.4002 20.0503 18.0503C19.4002 18.7003 18.8846 19.4719 18.5328 20.3212C18.1811 21.1705 18 22.0807 18 23" stroke="#F2F2F2" stroke-width="2" stroke-linecap="round" stroke-linejoin="round"/>
        </svg>