<svg width="18" height="18" viewBox="0 0 18 18" fill="none" xmlns="http://www.w3.org/2000/svg">
<path d="M0.5 4C0.5 2.067 2.067 0.5 4 0.5H14C15.933 0.5 17.5 2.067 17.5 4V14C17.5 15.933 15.933 17.5 14 17.5H4C2.067 17.5 0.5 15.933 0.5 14V4Z" stroke="#C2CFE0"/>
    <svg width="18" height="20" viewBox="-3 -1 18 14" fill="none" xmlns="http://www.w3.org/2000/svg">
        <path d="M4.31244 6.22098L2.02066 3.92919L1.94995 3.85848L1.87923 3.92919L1.09173 4.71669L1.02102 4.7874L1.09173 4.85811L4.24173 8.00811L4.31244 8.07882L4.38316 8.00811L11.1332 1.25811L11.2039 1.1874L11.1332 1.11669L10.3457 0.329192L10.2749 0.258481L10.2042 0.329192L4.31244 6.22098Z" fill="#C2CFE0" stroke="#C2CFE0" stroke-width="0.2"/>
    </svg>
</svg>
