<svg width="50" height="50" viewBox="0 0 50 50" fill="none" xmlns="http://www.w3.org/2000/svg">
          <circle cx="25" cy="25" r="25" fill="#F2F2F2"/>

          <path d="M17.5 25C18.8807 25 20 23.8807 20 22.5C20 21.1193 18.8807 20 17.5 20C16.1193 20 15 21.1193 15 22.5C15 23.8807 16.1193 25 17.5 25Z" fill="#1A4862"/>
          <path d="M22 21C23.3807 21 24.5 19.8807 24.5 18.5C24.5 17.1193 23.3807 16 22 16C20.6193 16 19.5 17.1193 19.5 18.5C19.5 19.8807 20.6193 21 22 21Z" fill="#1A4862"/>
          <path d="M28 21C29.3807 21 30.5 19.8807 30.5 18.5C30.5 17.1193 29.3807 16 28 16C26.6193 16 25.5 17.1193 25.5 18.5C25.5 19.8807 26.6193 21 28 21Z" fill="#1A4862"/>
          <path d="M32.5 25C33.8807 25 35 23.8807 35 22.5C35 21.1193 33.8807 20 32.5 20C31.1193 20 30 21.1193 30 22.5C30 23.8807 31.1193 25 32.5 25Z" fill="#1A4862"/>
          <path d="M30.3399 27.86C29.4699 26.84 28.7399 25.97 27.8599 24.95C27.3999 24.41 26.8099 23.87 26.1099 23.63C25.9999 23.59 25.8899 23.56 25.7799 23.54C25.5299 23.5 25.2599 23.5 24.9999 23.5C24.7399 23.5 24.4699 23.5 24.2099 23.55C24.0999 23.57 23.9899 23.6 23.8799 23.64C23.1799 23.88 22.5999 24.42 22.1299 24.96C21.2599 25.98 20.5299 26.85 19.6499 27.87C18.3399 29.18 16.7299 30.63 17.0299 32.66C17.3199 33.68 18.0499 34.69 19.3599 34.98C20.0899 35.13 22.4199 34.54 24.8999 34.54H25.0799C27.5599 34.54 29.8899 35.12 30.6199 34.98C31.9299 34.69 32.6599 33.67 32.9499 32.66C33.2599 30.62 31.6499 29.17 30.3399 27.86Z" fill="#1A4862"/>
        </svg>